<svg fill="none" height="100%" width="100%" viewBox="0 0 800 600" xmlns:xlink="http://www.w3.org/1999/xlink" xmlns="http://www.w3.org/2000/svg"><defs><clipPath id="i0"><path d="M401.123,209.5C401.123,209.5,398.877,209.5,398.877,209.5C380.719,209.5,366,222.386,366,238.281C366,238.281,366,363.08,366,363.08C366,378.975,380.719,391.861,398.877,391.861C398.877,391.861,401.123,391.861,401.123,391.861C419.281,391.861,434,378.975,434,363.08C434,363.08,434,238.281,434,238.281C434,222.386,419.281,209.5,401.123,209.5Z"><animate repeatCount="indefinite" begin="0s" keySplines="0.333 0 0.667 1; 0.333 0 0.667 1; 0.333 0 0.667 1; 0 0 1 1" calcMode="spline" fill="freeze" dur="4s" keyTimes="0; 0.05; 0.291667; 0.35; 1" values="M401.123,209.5C401.123,209.5,398.877,209.5,398.877,209.5C380.719,209.5,366,222.386,366,238.281C366,238.281,366,363.08,366,363.08C366,378.975,380.719,391.861,398.877,391.861C398.877,391.861,401.123,391.861,401.123,391.861C419.281,391.861,434,378.975,434,363.08C434,363.08,434,238.281,434,238.281C434,222.386,419.281,209.5,401.123,209.5Z; M401.123,200C401.123,200,398.877,200,398.877,200C380.719,200,366,212.886,366,228.781C366,228.781,366,353.58,366,353.58C366,369.475,380.719,382.361,398.877,382.361C398.877,382.361,401.123,382.361,401.123,382.361C419.281,382.361,434,369.475,434,353.58C434,353.58,434,228.781,434,228.781C434,212.886,419.281,200,401.123,200Z; M401.123,200C401.123,200,398.877,200,398.877,200C380.719,200,366,212.886,366,228.781C366,228.781,366,353.58,366,353.58C366,369.475,380.719,382.361,398.877,382.361C398.877,382.361,401.123,382.361,401.123,382.361C419.281,382.361,434,369.475,434,353.58C434,353.58,434,228.781,434,228.781C434,212.886,419.281,200,401.123,200Z; M401.123,209.5C401.123,209.5,398.877,209.5,398.877,209.5C380.719,209.5,366,222.386,366,238.281C366,238.281,366,363.08,366,363.08C366,378.975,380.719,391.861,398.877,391.861C398.877,391.861,401.123,391.861,401.123,391.861C419.281,391.861,434,378.975,434,363.08C434,363.08,434,238.281,434,238.281C434,222.386,419.281,209.5,401.123,209.5Z; M401.123,209.5C401.123,209.5,398.877,209.5,398.877,209.5C380.719,209.5,366,222.386,366,238.281C366,238.281,366,363.08,366,363.08C366,378.975,380.719,391.861,398.877,391.861C398.877,391.861,401.123,391.861,401.123,391.861C419.281,391.861,434,378.975,434,363.08C434,363.08,434,238.281,434,238.281C434,222.386,419.281,209.5,401.123,209.5Z" attributeName="d" /></path></clipPath></defs><g transform="matrix(1,0,0,1,400,327.5)" opacity="0.25" id="i1"><g id="i2"><path fill="#2f4fa5" d="M202.96,0C202.96,45.66,187.87,87.81,162.42,121.72C150.8,137.21,137.01,150.98,121.51,162.58C120.48,163.34,119.45,164.1,118.41,164.85C85.08,188.83,44.19,202.96,0,202.96C-42.97,202.96,-82.83,189.6,-115.64,166.81C-116.68,166.09,-117.71,165.36,-118.74,164.61C-135.51,152.5,-150.35,137.89,-162.72,121.32C-187.99,87.48,-202.96,45.48,-202.96,0C-202.96,-112.09,-112.09,-202.96,0,-202.96C112.09,-202.96,202.96,-112.09,202.96,0Z" /></g></g><g id="i3"><g transform="translate(399.85,530.46)"><g transform="scale(1,1)"><animateTransform repeatCount="indefinite" type="scale" attributeName="transform" dur="4s" begin="0s" calcMode="spline" values="1 1; 1 1; 1 1.06; 1 1.06; 1 1; 1 1" keyTimes="0; 0.375; 0.425; 0.666667; 0.725; 1" keySplines="0 0 1 1; 0.333 0 0.667 1; 0.333 0 0.667 1; 0.333 0 0.667 1; 0 0 1 1" fill="freeze" /><g transform="translate(-399.85,-530.46)"><g id="i4" transform="matrix(1,0,0,1,399.492,326.962)"><path fill="#2f4fa5" d="M99.676,-2.282C99.676,27.183,55.049,51.068,0,51.068C-55.049,51.068,-99.676,27.183,-99.676,-2.282C-99.676,-31.746,-55.049,-51.068,0,-51.068C55.049,-51.068,99.676,-31.746,99.676,-2.282Z" /></g><g id="i5" transform="matrix(1,0,0,1,398.445,370.774)"><path fill="#17355d" d="M70.02,-2.095C70.02,24.951,38.671,46.877,0,46.877C-38.671,46.877,-70.02,24.951,-70.02,-2.095C-70.02,-29.141,-38.671,-46.877,0,-46.877C38.671,-46.877,70.02,-29.141,70.02,-2.095Z" /></g><g id="i6" transform="matrix(1,0,0,1,399.85,439.14)"><path fill="#2f4fa5" d="M162.57,10.08C150.95,25.57,137.16,39.34,121.66,50.94C120.63,51.7,119.6,52.46,118.56,53.21C85.23,77.19,44.34,91.32,0.15,91.32C-42.82,91.32,-82.68,77.96,-115.49,55.17C-116.53,54.45,-117.56,53.72,-118.59,52.97C-135.36,40.86,-150.2,26.25,-162.57,9.68C-147.96,-31.44,-118.91,-74.46,-61.32,-91.32C-61.32,-91.32,-44.12,-69.9,-44.12,-69.9C-44.12,-69.9,45.2,-69.9,45.2,-69.9C45.2,-69.9,64.63,-88.8,64.63,-88.8C122.47,-70.4,149.88,-29.25,162.57,10.08Z" /></g><g id="i7" transform="matrix(1,0,0,1,282.81,481.08)"><path fill="#17355d" d="M1.55,-11.68C1.55,-11.68,1.55,13.23,1.55,13.23C0.51,12.51,-0.52,11.78,-1.55,11.03C-1.55,11.03,-1.55,-11.68,-1.55,-11.68C-1.55,-12.54,-0.86,-13.23,0,-13.23C0.85,-13.23,1.55,-12.54,1.55,-11.68Z" /></g><g id="i2" transform="matrix(1,0,0,1,519.96,480.1)"><path fill="#17355d" d="M1.55,-10.7C1.55,-10.7,1.55,9.98,1.55,9.98C0.52,10.74,-0.51,11.5,-1.55,12.25C-1.55,12.25,-1.55,-10.7,-1.55,-10.7C-1.55,-11.56,-0.86,-12.25,0,-12.25C0.85,-12.25,1.55,-11.56,1.55,-10.7Z" /></g></g></g></g></g><g id="i8"><g transform="translate(399.728,360.131)"><g transform="rotate(0)"><animateTransform repeatCount="indefinite" type="rotate" attributeName="transform" dur="4s" begin="0s" calcMode="spline" values="0; 0; 10; 10; -3; 1; 0; 0" keyTimes="0; 0.383333; 0.45; 0.675; 0.741667; 0.775; 0.8; 1" keySplines="0 0 1 1; 0.305 0 0 1; 0.333 0 0.667 1; 0.861 0 0.616 1; 0.775 0 0.67 1; 1 0 0.721 1; 0 0 1 1" fill="freeze" /><g transform="scale(1,1) translate(-399.728,-360.131)"><g clip-path="url(#i0)" id="i9"><g id="i7" transform="matrix(1,0,0,1,399.728,301.132)"><path fill="#ffd9bb" d="M0,90.792C0,90.792,0,90.792,0,90.792C-18.723,90.792,-33.9,75.614,-33.9,56.891C-33.9,56.891,-33.9,-56.891,-33.9,-56.891C-33.9,-75.614,-18.723,-90.792,0,-90.792C0,-90.792,0,-90.792,0,-90.792C18.723,-90.792,33.9,-75.614,33.9,-56.891C33.9,-56.891,33.9,56.891,33.9,56.891C33.9,75.614,18.723,90.792,0,90.792Z" /></g><g id="i2" transform="matrix(1,0,0,1,399.728,273.343)"><path d="M33.898,-29.108C33.898,-29.108,33.898,63.005,33.898,63.005C8.974,61.412,-14.194,53.311,-33.898,40.356C-33.898,40.356,-33.898,-29.108,-33.898,-29.108C-33.898,-47.826,-18.718,-63.005,0,-63.005C9.365,-63.005,17.846,-59.214,23.976,-53.071C30.106,-46.941,33.898,-38.474,33.898,-29.108Z" fill="#f4c7a6"><animate repeatCount="indefinite" attributeName="d" dur="4s" begin="0s" calcMode="spline" values="M33.898,-29.108C33.898,-29.108,33.898,63.005,33.898,63.005C8.974,61.412,-14.194,53.311,-33.898,40.356C-33.898,40.356,-33.898,-29.108,-33.898,-29.108C-33.898,-47.826,-18.718,-63.005,0,-63.005C9.365,-63.005,17.846,-59.214,23.976,-53.071C30.106,-46.941,33.898,-38.474,33.898,-29.108Z; M33.898,-29.108C33.898,-29.108,33.898,63.005,33.898,63.005C8.974,61.412,-14.194,53.311,-33.898,40.356C-33.898,40.356,-33.898,-29.108,-33.898,-29.108C-33.898,-47.826,-18.718,-63.005,0,-63.005C9.365,-63.005,17.846,-59.214,23.976,-53.071C30.106,-46.941,33.898,-38.474,33.898,-29.108Z; M33.898,-29.108C33.898,-29.108,33.795,55.505,33.795,55.505C8.871,53.912,-14.296,45.811,-34,32.856C-34,32.856,-33.898,-29.108,-33.898,-29.108C-33.898,-47.826,-18.718,-63.005,0,-63.005C9.365,-63.005,17.846,-59.214,23.976,-53.071C30.106,-46.941,33.898,-38.474,33.898,-29.108Z; M33.898,-29.108C33.898,-29.108,33.795,55.505,33.795,55.505C8.871,53.912,-14.296,45.811,-34,32.856C-34,32.856,-33.898,-29.108,-33.898,-29.108C-33.898,-47.826,-18.718,-63.005,0,-63.005C9.365,-63.005,17.846,-59.214,23.976,-53.071C30.106,-46.941,33.898,-38.474,33.898,-29.108Z; M33.898,-29.108C33.898,-29.108,33.898,63.005,33.898,63.005C8.974,61.412,-14.194,53.311,-33.898,40.356C-33.898,40.356,-33.898,-29.108,-33.898,-29.108C-33.898,-47.826,-18.718,-63.005,0,-63.005C9.365,-63.005,17.846,-59.214,23.976,-53.071C30.106,-46.941,33.898,-38.474,33.898,-29.108Z; M33.898,-29.108C33.898,-29.108,33.898,63.005,33.898,63.005C8.974,61.412,-14.194,53.311,-33.898,40.356C-33.898,40.356,-33.898,-29.108,-33.898,-29.108C-33.898,-47.826,-18.718,-63.005,0,-63.005C9.365,-63.005,17.846,-59.214,23.976,-53.071C30.106,-46.941,33.898,-38.474,33.898,-29.108Z" keyTimes="0; 0.383333; 0.433333; 0.675; 0.741667; 1" keySplines="0 0 1 1; 0.333 0 0.667 1; 0.333 0 0.667 1; 0.333 0 0.667 1; 0 0 1 1" fill="freeze" /></path></g></g></g></g></g></g><g id="i3"><g transform="translate(399.85,530.46)"><g transform="scale(1,1)"><animateTransform repeatCount="indefinite" type="scale" attributeName="transform" dur="4s" begin="0s" calcMode="spline" values="1 1; 1 1; 1 1.06; 1 1.06; 1 1; 1 1" keyTimes="0; 0.375; 0.425; 0.666667; 0.725; 1" keySplines="0 0 1 1; 0.333 0 0.667 1; 0.333 0 0.667 1; 0.333 0 0.667 1; 0 0 1 1" fill="freeze" /><g transform="translate(-399.85,-530.46)"><g transform="matrix(1,0,0,1,0,0)" id="i10"><g id="i11" transform="matrix(1,0,0,1,354.095,365.003)"><path fill="#2f4fa5" d="M-13.796,-28.44C26.575,-16.569,45.75,28.44,45.75,28.44C16.511,17.458,-38.019,23,-45.75,-3.754C-45.75,-3.754,-45.489,-14.595,-37.999,-24.131" /></g><g id="i12" transform="matrix(1,0,0,1,351.016,378.029)"><path fill="#17355d" d="M41.18,13.782C41.116,13.782,41.052,13.776,40.988,13.758C32.518,11.543,22.538,10.129,12.888,8.765C-10.278,5.488,-34.233,2.1,-41.856,-12.675C-42.048,-13.047,-41.901,-13.506,-41.527,-13.697C-41.16,-13.888,-40.699,-13.746,-40.503,-13.371C-33.241,0.705,-9.682,4.036,13.101,7.258C22.794,8.632,32.817,10.048,41.372,12.287C41.779,12.393,42.021,12.807,41.915,13.216C41.826,13.558,41.517,13.782,41.18,13.782Z" /></g><g id="i13" transform="matrix(1,0,0,1,369.515,363.808)"><path fill="#17355d" d="M29.217,28.003C28.936,28.003,28.665,27.846,28.533,27.577C23.583,17.432,4.773,-16.459,-29.432,-26.516C-29.834,-26.634,-30.064,-27.059,-29.946,-27.461C-29.828,-27.86,-29.401,-28.087,-29.002,-27.975C5.799,-17.742,24.88,16.624,29.9,26.911C30.083,27.289,29.927,27.743,29.549,27.928C29.441,27.979,29.329,28.003,29.217,28.003Z" /></g><g id="i14" transform="matrix(1,0,0,1,378.347,380.399)"><path fill="#17355d" d="M3.251,0C3.251,1.741,1.796,3.153,0,3.153C-1.795,3.153,-3.251,1.741,-3.251,0C-3.251,-1.741,-1.795,-3.153,0,-3.153C1.796,-3.153,3.251,-1.741,3.251,0Z" /></g><g id="i15" transform="matrix(1,0,0,1,446.809,365.003)"><path fill="#2f4fa5" d="M13.796,-28.44C-26.575,-16.569,-45.75,28.44,-45.75,28.44C-16.511,17.458,38.018,23,45.75,-3.754C45.75,-3.754,45.489,-14.595,37.999,-24.131" /></g><g id="i4" transform="matrix(1,0,0,1,449.888,378.03)"><path fill="#17355d" d="M-41.181,13.781C-41.518,13.781,-41.827,13.557,-41.916,13.215C-42.022,12.806,-41.78,12.393,-41.373,12.287C-32.818,10.048,-22.795,8.632,-13.102,7.258C9.681,4.036,33.241,0.705,40.504,-13.371C40.699,-13.746,41.164,-13.886,41.528,-13.698C41.902,-13.507,42.048,-13.048,41.856,-12.676C34.231,2.099,10.277,5.488,-12.889,8.765C-22.54,10.129,-32.519,11.542,-40.989,13.757C-41.053,13.775,-41.117,13.781,-41.181,13.781Z" /></g><g id="i5" transform="matrix(1,0,0,1,431.388,363.807)"><path fill="#17355d" d="M-29.217,28.004C-29.329,28.004,-29.441,27.979,-29.549,27.928C-29.927,27.743,-30.084,27.29,-29.901,26.912C-24.881,16.625,-5.8,-17.741,29.002,-27.974C29.415,-28.089,29.829,-27.859,29.946,-27.46C30.064,-27.058,29.834,-26.634,29.432,-26.516C-4.773,-16.459,-23.583,17.432,-28.533,27.577C-28.664,27.846,-28.935,28.004,-29.217,28.004Z" /></g><g id="i6" transform="matrix(1,0,0,1,422.557,380.399)"><path fill="#17355d" d="M-3.251,0C-3.251,1.741,-1.796,3.153,0,3.153C1.795,3.153,3.251,1.741,3.251,0C3.251,-1.741,1.795,-3.153,0,-3.153C-1.796,-3.153,-3.251,-1.741,-3.251,0Z" /></g><g id="i7" transform="matrix(1,0,0,1,385.376,440.099)"><path fill="#f1d9ce" d="M-5.917,61.2C-6.661,61.2,-7.306,60.647,-7.403,59.889C-7.419,59.766,-8.978,47.354,-8.908,32.163C-8.812,11.649,-5.953,-3.921,-0.407,-14.117C5.655,-25.264,7.364,-35.175,4.672,-43.57C1.373,-53.855,-7.592,-58.306,-7.682,-58.35C-8.426,-58.711,-8.738,-59.608,-8.379,-60.352C-8.019,-61.098,-7.124,-61.409,-6.38,-61.052C-5.966,-60.854,3.795,-56.05,7.512,-44.536C10.489,-35.319,8.709,-24.603,2.227,-12.684C-10.476,10.673,-4.489,59.025,-4.427,59.511C-4.323,60.332,-4.904,61.083,-5.726,61.188C-5.79,61.196,-5.854,61.2,-5.917,61.2Z" /></g><g id="i2" transform="matrix(1,0,0,1,410.915,440.098)"><path fill="#f1d9ce" d="M13.353,61.201C13.314,61.201,13.274,61.2,13.235,61.196C12.409,61.133,11.792,60.41,11.856,59.584C11.87,59.395,13.039,40.067,-7.247,17.548C-17.431,6.244,-17.426,-10.939,-7.235,-32.146C0.331,-47.892,10.987,-60.544,11.093,-60.67C11.627,-61.303,12.572,-61.38,13.207,-60.844C13.839,-60.309,13.917,-59.362,13.382,-58.73C12.969,-58.242,-27.695,-9.631,-5.019,15.54C16.195,39.088,14.912,58.982,14.847,59.817C14.786,60.603,14.128,61.201,13.353,61.201Z" /></g></g></g></g></g></g><g id="i8"><g transform="translate(399.728,360.131)"><g transform="rotate(0)"><animateTransform repeatCount="indefinite" type="rotate" attributeName="transform" dur="4s" begin="0s" calcMode="spline" values="0; 0; 10; 10; -3; 1; 0; 0" keyTimes="0; 0.383333; 0.45; 0.675; 0.741667; 0.775; 0.8; 1" keySplines="0 0 1 1; 0.305 0 0 1; 0.333 0 0.667 1; 0.861 0 0.616 1; 0.775 0 0.67 1; 1 0 0.721 1; 0 0 1 1" fill="freeze" /><g transform="scale(1,1) translate(-399.728,-360.131)"><g transform="matrix(1,0,0,1,399.728,206.395)" id="i16"><g transform="matrix(1,0,0,1,-399.728,-206.395)" id="i17"><g id="i7" transform="matrix(1,0,0,1,483.904,231.62)"><path fill="#f6c9a7" d="M16.28,0C16.28,8.991,8.991,16.28,0,16.28C-8.991,16.28,-16.28,8.991,-16.28,0C-16.28,-8.991,-8.991,-16.28,0,-16.28C8.991,-16.28,16.28,-8.991,16.28,0Z" /></g><g id="i2" transform="matrix(1,0,0,1,316.096,231.62)"><path fill="#f6c9a7" d="M16.28,0C16.28,8.991,8.991,16.28,0,16.28C-8.991,16.28,-16.28,8.991,-16.28,0C-16.28,-8.991,-8.991,-16.28,0,-16.28C8.991,-16.28,16.28,-8.991,16.28,0Z" /></g></g></g></g></g></g></g><g id="i8"><g transform="translate(399.728,360.131)"><g transform="rotate(0)"><animateTransform repeatCount="indefinite" type="rotate" attributeName="transform" dur="4s" begin="0s" calcMode="spline" values="0; 0; 10; 10; -3; 1; 0; 0" keyTimes="0; 0.383333; 0.45; 0.675; 0.741667; 0.775; 0.8; 1" keySplines="0 0 1 1; 0.305 0 0 1; 0.333 0 0.667 1; 0.861 0 0.616 1; 0.775 0 0.67 1; 1 0 0.721 1; 0 0 1 1" fill="freeze" /><g transform="scale(1,1) translate(-399.728,-360.131)"><g transform="matrix(1,0,0,1,399.728,206.395)" id="i16"><g id="i2"><path fill="#ffd9bb" d="M40.814,97.341C40.814,97.341,40.814,97.341,40.814,97.341C16.426,114.866,-16.426,114.866,-40.814,97.341C-40.814,97.341,-40.814,97.341,-40.814,97.341C-67.866,77.901,-83.904,46.627,-83.904,13.315C-83.904,13.315,-83.904,-26.582,-83.904,-26.582C-83.904,-72.921,-46.339,-110.486,0,-110.486C0,-110.486,0,-110.486,0,-110.486C46.339,-110.486,83.904,-72.921,83.904,-26.582C83.904,-26.582,83.904,13.315,83.904,13.315C83.904,46.627,67.866,77.901,40.814,97.341Z" /></g></g></g></g></g></g><g id="i8"><g transform="translate(399.728,360.131)"><g transform="rotate(0)"><animateTransform repeatCount="indefinite" type="rotate" attributeName="transform" dur="4s" begin="0s" calcMode="spline" values="0; 0; 10; 10; -3; 1; 0; 0" keyTimes="0; 0.383333; 0.45; 0.675; 0.741667; 0.775; 0.8; 1" keySplines="0 0 1 1; 0.305 0 0 1; 0.333 0 0.667 1; 0.861 0 0.616 1; 0.775 0 0.67 1; 1 0 0.721 1; 0 0 1 1" fill="freeze" /><g transform="scale(1,1) translate(-399.728,-360.131)"><g transform="matrix(1,0,0,1,399.728,206.395)" id="i16"><g id="i18"><g transform="translate(0,68.422)"><g transform="scale(0.75,0.75)"><animateTransform repeatCount="indefinite" type="scale" attributeName="transform" dur="4s" begin="0s" calcMode="spline" values="0.75 0.75; 0.75 0.75; 1 1; 1 1; 0.75 0.75; 0.75 0.75" keyTimes="0; 0.375; 0.433333; 0.675; 0.733333; 1" keySplines="0 0 1 1; 0.333 0 0.667 1; 0.333 0 0.667 1; 0.333 0 0.667 1; 0 0 1 1" fill="freeze" /><g transform="translate(0,0)"><g id="i2"><path fill="#ffffff" d="M0,14.906C0,14.906,0,14.906,0,14.906C-16.465,14.906,-29.813,1.559,-29.813,-14.906C-29.813,-14.906,29.813,-14.906,29.813,-14.906C29.813,1.559,16.465,14.906,0,14.906Z" /></g></g></g></g></g></g></g></g></g></g><g id="i8"><g transform="translate(399.728,360.131)"><g transform="rotate(0)"><animateTransform repeatCount="indefinite" type="rotate" attributeName="transform" dur="4s" begin="0s" calcMode="spline" values="0; 0; 10; 10; -3; 1; 0; 0" keyTimes="0; 0.383333; 0.45; 0.675; 0.741667; 0.775; 0.8; 1" keySplines="0 0 1 1; 0.305 0 0 1; 0.333 0 0.667 1; 0.861 0 0.616 1; 0.775 0 0.67 1; 1 0 0.721 1; 0 0 1 1" fill="freeze" /><g transform="scale(1,1) translate(-399.728,-360.131)"><g transform="matrix(1,0,0,1,399.728,206.395)" id="i16"><g transform="matrix(1,0,0,1,0,25.225)" id="i19"><g id="i2"><path fill="#f4c7a6" d="M0,17.67C0,17.67,0,17.67,0,17.67C-5.311,17.67,-9.466,13.094,-8.954,7.808C-8.954,7.808,-7.113,-11.212,-7.113,-11.212C-6.758,-14.875,-3.68,-17.67,0,-17.67C0,-17.67,0,-17.67,0,-17.67C3.68,-17.67,6.758,-14.875,7.113,-11.212C7.113,-11.212,8.954,7.808,8.954,7.808C9.466,13.094,5.311,17.67,0,17.67Z" /></g></g></g></g></g></g></g><g id="i8"><g transform="translate(399.728,360.131)"><g transform="rotate(0)"><animateTransform repeatCount="indefinite" type="rotate" attributeName="transform" dur="4s" begin="0s" calcMode="spline" values="0; 0; 10; 10; -3; 1; 0; 0" keyTimes="0; 0.383333; 0.45; 0.675; 0.741667; 0.775; 0.8; 1" keySplines="0 0 1 1; 0.305 0 0 1; 0.333 0 0.667 1; 0.861 0 0.616 1; 0.775 0 0.67 1; 1 0 0.721 1; 0 0 1 1" fill="freeze" /><g transform="scale(1,1) translate(-399.728,-360.131)"><g transform="matrix(1,0,0,1,399.728,206.395)" id="i16"><g id="i20"><g transform="translate(-0.746,13.288)"><g transform="scale(1,1)"><animateTransform repeatCount="indefinite" type="scale" attributeName="transform" dur="4s" begin="0s" calcMode="spline" values="1 1; 1 1; 1 0.1; 1 1; 1 1" keyTimes="0; 0.108333; 0.1375; 0.166666; 1" keySplines="0 0 1 1; 0.333 0 0.667 1; 0.333 0 0.667 1; 0 0 1 1" fill="freeze" /><g transform="translate(-398.983,-219.683)"><g id="i7" transform="matrix(1,0,0,1,364.065,219.683)"><path d="M0,9.735C0,9.735,0,9.735,0,9.735C-5.377,9.735,-9.735,5.377,-9.735,0C-9.735,0,-9.735,0,-9.735,0C-9.735,-5.377,-5.377,-9.735,0,-9.735C0,-9.735,0,-9.735,0,-9.735C5.377,-9.735,9.735,-5.377,9.735,0C9.735,0,9.735,0,9.735,0C9.735,5.377,5.377,9.735,0,9.735Z" fill="#31302d"><animate repeatCount="indefinite" attributeName="d" dur="4s" begin="0s" calcMode="spline" values="M0,9.735C0,9.735,0,9.735,0,9.735C-5.377,9.735,-9.735,5.377,-9.735,0C-9.735,0,-9.735,0,-9.735,0C-9.735,-5.377,-5.377,-9.735,0,-9.735C0,-9.735,0,-9.735,0,-9.735C5.377,-9.735,9.735,-5.377,9.735,0C9.735,0,9.735,0,9.735,0C9.735,5.377,5.377,9.735,0,9.735Z; M0,9.735C0,9.735,0,9.735,0,9.735C-5.377,9.735,-9.735,5.377,-9.735,0C-9.735,0,-9.735,0,-9.735,0C-9.735,-5.377,-5.377,-9.735,0,-9.735C0,-9.735,0,-9.735,0,-9.735C5.377,-9.735,9.735,-5.377,9.735,0C9.735,0,9.735,0,9.735,0C9.735,5.377,5.377,9.735,0,9.735Z; M0,2.485C0,2.485,0,2.485,0,2.485C-5.377,2.485,-9.735,5.377,-9.735,0C-9.735,0,-9.735,0,-9.735,0C-9.735,-5.377,-5.377,-9.735,0,-9.735C0,-9.735,0,-9.735,0,-9.735C5.377,-9.735,9.735,-5.377,9.735,0C9.735,0,9.735,0,9.735,0C9.735,5.377,5.377,2.485,0,2.485Z; M0,2.485C0,2.485,0,2.485,0,2.485C-5.377,2.485,-9.735,5.377,-9.735,0C-9.735,0,-9.735,0,-9.735,0C-9.735,-5.377,-5.377,-9.735,0,-9.735C0,-9.735,0,-9.735,0,-9.735C5.377,-9.735,9.735,-5.377,9.735,0C9.735,0,9.735,0,9.735,0C9.735,5.377,5.377,2.485,0,2.485Z; M0,9.735C0,9.735,0,9.735,0,9.735C-5.377,9.735,-9.735,5.377,-9.735,0C-9.735,0,-9.735,0,-9.735,0C-9.735,-5.377,-5.377,-9.735,0,-9.735C0,-9.735,0,-9.735,0,-9.735C5.377,-9.735,9.735,-5.377,9.735,0C9.735,0,9.735,0,9.735,0C9.735,5.377,5.377,9.735,0,9.735Z; M0,9.735C0,9.735,0,9.735,0,9.735C-5.377,9.735,-9.735,5.377,-9.735,0C-9.735,0,-9.735,0,-9.735,0C-9.735,-5.377,-5.377,-9.735,0,-9.735C0,-9.735,0,-9.735,0,-9.735C5.377,-9.735,9.735,-5.377,9.735,0C9.735,0,9.735,0,9.735,0C9.735,5.377,5.377,9.735,0,9.735Z" keyTimes="0; 0.375; 0.416667; 0.666667; 0.708333; 1" keySplines="0 0 1 1; 0.333 0 0.667 1; 0.333 0 0.667 1; 0.333 0 0.667 1; 0 0 1 1" fill="freeze" /></path></g><g id="i2" transform="matrix(1,0,0,1,433.9,219.683)"><path d="M0,9.735C0,9.735,0,9.735,0,9.735C-5.377,9.735,-9.735,5.377,-9.735,0C-9.735,0,-9.735,0,-9.735,0C-9.735,-5.377,-5.377,-9.735,0,-9.735C0,-9.735,0,-9.735,0,-9.735C5.377,-9.735,9.735,-5.377,9.735,0C9.735,0,9.735,0,9.735,0C9.735,5.377,5.377,9.735,0,9.735Z" fill="#31302d"><animate repeatCount="indefinite" attributeName="d" dur="4s" begin="0s" calcMode="spline" values="M0,9.735C0,9.735,0,9.735,0,9.735C-5.377,9.735,-9.735,5.377,-9.735,0C-9.735,0,-9.735,0,-9.735,0C-9.735,-5.377,-5.377,-9.735,0,-9.735C0,-9.735,0,-9.735,0,-9.735C5.377,-9.735,9.735,-5.377,9.735,0C9.735,0,9.735,0,9.735,0C9.735,5.377,5.377,9.735,0,9.735Z; M0,9.735C0,9.735,0,9.735,0,9.735C-5.377,9.735,-9.735,5.377,-9.735,0C-9.735,0,-9.735,0,-9.735,0C-9.735,-5.377,-5.377,-9.735,0,-9.735C0,-9.735,0,-9.735,0,-9.735C5.377,-9.735,9.735,-5.377,9.735,0C9.735,0,9.735,0,9.735,0C9.735,5.377,5.377,9.735,0,9.735Z; M0,2.485C0,2.485,0,2.485,0,2.485C-5.377,2.485,-9.735,5.377,-9.735,0C-9.735,0,-9.735,0,-9.735,0C-9.735,-5.377,-5.377,-9.735,0,-9.735C0,-9.735,0,-9.735,0,-9.735C5.377,-9.735,9.735,-5.377,9.735,0C9.735,0,9.735,0,9.735,0C9.735,5.377,5.377,2.485,0,2.485Z; M0,2.485C0,2.485,0,2.485,0,2.485C-5.377,2.485,-9.735,5.377,-9.735,0C-9.735,0,-9.735,0,-9.735,0C-9.735,-5.377,-5.377,-9.735,0,-9.735C0,-9.735,0,-9.735,0,-9.735C5.377,-9.735,9.735,-5.377,9.735,0C9.735,0,9.735,0,9.735,0C9.735,5.377,5.377,2.485,0,2.485Z; M0,9.735C0,9.735,0,9.735,0,9.735C-5.377,9.735,-9.735,5.377,-9.735,0C-9.735,0,-9.735,0,-9.735,0C-9.735,-5.377,-5.377,-9.735,0,-9.735C0,-9.735,0,-9.735,0,-9.735C5.377,-9.735,9.735,-5.377,9.735,0C9.735,0,9.735,0,9.735,0C9.735,5.377,5.377,9.735,0,9.735Z; M0,9.735C0,9.735,0,9.735,0,9.735C-5.377,9.735,-9.735,5.377,-9.735,0C-9.735,0,-9.735,0,-9.735,0C-9.735,-5.377,-5.377,-9.735,0,-9.735C0,-9.735,0,-9.735,0,-9.735C5.377,-9.735,9.735,-5.377,9.735,0C9.735,0,9.735,0,9.735,0C9.735,5.377,5.377,9.735,0,9.735Z" keyTimes="0; 0.375; 0.416667; 0.666667; 0.708333; 1" keySplines="0 0 1 1; 0.333 0 0.667 1; 0.333 0 0.667 1; 0.333 0 0.667 1; 0 0 1 1" fill="freeze" /></path></g></g></g></g></g></g></g></g></g></g><g id="i8"><g transform="translate(399.728,360.131)"><g transform="rotate(0)"><animateTransform repeatCount="indefinite" type="rotate" attributeName="transform" dur="4s" begin="0s" calcMode="spline" values="0; 0; 10; 10; -3; 1; 0; 0" keyTimes="0; 0.383333; 0.45; 0.675; 0.741667; 0.775; 0.8; 1" keySplines="0 0 1 1; 0.305 0 0 1; 0.333 0 0.667 1; 0.861 0 0.616 1; 0.775 0 0.67 1; 1 0 0.721 1; 0 0 1 1" fill="freeze" /><g transform="scale(1,1) translate(-399.728,-360.131)"><g transform="matrix(1,0,0,1,399.728,206.395)" id="i16"><g transform="matrix(1,0,0,1,-399.728,-206.395)" id="i21"><g id="i7" transform="matrix(1,0,0,1,363.405,192.933)"><path fill="#31302d" d="M8.357,4.624C8.357,4.624,-8.357,4.624,-8.357,4.624C-10.911,4.624,-12.98,2.554,-12.98,0C-12.98,0,-12.98,0,-12.98,0C-12.98,-2.554,-10.911,-4.624,-8.357,-4.624C-8.357,-4.624,8.357,-4.624,8.357,-4.624C10.911,-4.624,12.98,-2.554,12.98,0C12.98,0,12.98,0,12.98,0C12.98,2.554,10.911,4.624,8.357,4.624Z" /></g><g id="i2" transform="matrix(1,0,0,1,433.9,192.933)"><path fill="#31302d" d="M8.357,4.624C8.357,4.624,-8.357,4.624,-8.357,4.624C-10.911,4.624,-12.98,2.554,-12.98,0C-12.98,0,-12.98,0,-12.98,0C-12.98,-2.554,-10.911,-4.624,-8.357,-4.624C-8.357,-4.624,8.357,-4.624,8.357,-4.624C10.911,-4.624,12.98,-2.554,12.98,0C12.98,0,12.98,0,12.98,0C12.98,2.554,10.911,4.624,8.357,4.624Z" /></g></g></g></g></g></g></g><g id="i8"><g transform="translate(399.728,360.131)"><g transform="rotate(0)"><animateTransform repeatCount="indefinite" type="rotate" attributeName="transform" dur="4s" begin="0s" calcMode="spline" values="0; 0; 10; 10; -3; 1; 0; 0" keyTimes="0; 0.383333; 0.45; 0.675; 0.741667; 0.775; 0.8; 1" keySplines="0 0 1 1; 0.305 0 0 1; 0.333 0 0.667 1; 0.861 0 0.616 1; 0.775 0 0.67 1; 1 0 0.721 1; 0 0 1 1" fill="freeze" /><g transform="scale(1,1) translate(-399.728,-360.131)"><g transform="matrix(1,0,0,1,399.728,206.395)" id="i16"><g transform="matrix(1,0,0,1,-399.728,-206.395)" id="i22"><g id="i6" transform="matrix(1,0,0,1,329.895,166.958)"><path fill="#31302d" d="M-16.315,45.575C-16.315,45.575,-30.42,-30.382,-7.021,-42.418C16.378,-54.454,20.53,-28.194,20.53,-28.194C20.53,-28.194,0.528,46.389,-13.485,45.381C-14.865,45.381,-16.315,45.575,-16.315,45.575Z" /></g><g id="i7" transform="matrix(1,0,0,1,469.583,167.225)"><path fill="#31302d" d="M20.902,46.501C20.902,46.501,36.469,-28.893,9.621,-42.684C-17.227,-56.475,-25.39,-28.46,-25.39,-28.46C-25.39,-28.46,-9.955,25.609,12.443,45.224C18.208,45.116,20.902,46.501,20.902,46.501Z" /></g><g><g transform="translate(352.234,125.069)"><g transform="rotate(0)"><animateTransform repeatCount="indefinite" type="rotate" attributeName="transform" dur="4s" begin="0s" calcMode="spline" values="0; 0; -3; 1; 0; 0" keyTimes="0; 0.766667; 0.8; 0.841667; 0.858333; 1" keySplines="0 0 1 1; 0.333 0 0.667 1; 0.333 0 0.667 1; 0.333 0 0.667 1; 0 0 1 1" fill="freeze" /><g id="i2" transform="translate(56.491,-9.937)"><path fill="#31302d" d="M-56.665,38.759C-56.665,38.759,10.903,61.169,58,24.825C89.91,0.201,87.767,-25.021,80.191,-29.796C63.634,-40.232,54.323,-19.927,54.323,-19.927C54.323,-19.927,63.401,-44.56,37.109,-45.209C21.573,-45.592,15.215,-30.419,15.215,-30.419C15.215,-30.419,13.992,-33.515,11.138,-37.041C0.687,-49.951,-16.704,-47.272,-28.28,-35.495C-49.08,-14.335,-75.802,-20.448,-84.253,10.151C-90.033,31.079,-56.665,38.759,-56.665,38.759Z" /></g></g></g></g></g></g></g></g></g></g></svg>