<svg fill="none" height="100%" width="100%" viewBox="0 0 800 600" xmlns:xlink="http://www.w3.org/1999/xlink" xmlns="http://www.w3.org/2000/svg"><g transform="matrix(1,0,0,1,399.999,325.592)" opacity="0.25" id="i0"><g id="i1"><path fill="#7c6f66" d="M202.96,0C202.96,71.7,165.78,134.71,109.65,170.81C108.66,171.45,107.66,172.08,106.65,172.7C75.66,191.89,39.12,202.96,0,202.96C-39.55,202.96,-76.46,191.64,-107.67,172.07C-108.68,171.44,-109.68,170.8,-110.67,170.15C-166.23,133.95,-202.96,71.26,-202.96,0C-202.96,-112.1,-112.09,-202.96,0,-202.96C112.09,-202.96,202.96,-112.1,202.96,0Z" /></g></g><g id="i2"><g transform="translate(399.729,359.219)"><g transform="rotate(0)"><animateTransform repeatCount="indefinite" type="rotate" attributeName="transform" dur="4s" begin="0s" calcMode="spline" values="0; 0; 10; 10; -3; 1; 0; 0" keyTimes="0; 0.408333; 0.475; 0.7; 0.766667; 0.8; 0.825; 1" keySplines="0 0 1 1; 0.305 0 0 1; 0.333 0 0.667 1; 0.861 0 0.616 1; 0.775 0 0.67 1; 1 0 0.721 1; 0 0 1 1" fill="freeze" /><g transform="scale(1,1) translate(-399.729,-359.219)"><g transform="matrix(1,0,0,1,399.729,201.482)" id="i3"><g id="i4"><g transform="translate(-1.63,-118.359)"><g transform="rotate(0)"><animateTransform repeatCount="indefinite" type="rotate" attributeName="transform" dur="4s" begin="0s" calcMode="spline" values="0; 0; -2; 1; -1; 0; 0" keyTimes="0; 0.758333; 0.787125; 0.8303; 0.873483; 0.916666; 1" keySplines="0 0 1 1; 0.333 0 0.667 1; 0.333 0 0.667 1; 0.333 0 0.667 1; 0.333 0 0.667 1; 0 0 1 1" fill="freeze" /><g transform="scale(1,1) translate(-398.628,-83.765)"><g transform="matrix(1,0,0,1,477.931,285.472)" id="i5"><g id="i1"><path fill="#563c00" d="M16.713,-145.5C16.713,-145.5,23.035,-100.458,42,-70.43C69.35,-27.126,34.098,-21.436,41.21,8.592C48.322,38.62,102.847,63.907,38.049,132.656C-4.359,177.65,-55.196,89.984,-55.196,89.984C-55.196,89.984,-69.42,-24.597,-69.42,-24.597C-69.42,-24.597,16.713,-145.5,16.713,-145.5Z" /></g></g></g></g></g></g></g></g></g></g></g><g id="i6"><g transform="translate(400,528.55)"><g transform="scale(1,1)"><animateTransform repeatCount="indefinite" type="scale" attributeName="transform" dur="4s" begin="0s" calcMode="spline" values="1 1; 1 1; 1 1.06; 1 1.06; 1 1; 1 1" keyTimes="0; 0.375; 0.425; 0.725; 0.783333; 1" keySplines="0 0 1 1; 0.333 0 0.667 1; 0.333 0 0.667 1; 0.333 0 0.667 1; 0 0 1 1" fill="freeze" /><g transform="translate(-400,-528.55)"><g id="i7" transform="matrix(1,0,0,1,400,433.75)"><path d="M161.24,15.11C124.16,63.56,65.73,94.8,0,94.8C-65.72,94.8,-124.15,63.56,-161.24,15.12C-151.07,-29.09,-118.39,-64.7,-75.91,-78.99C-68.24,-81.58,-60.25,-83.46,-52.02,-84.58C-44,-87.87,-35.6,-90.42,-26.9,-92.16C-18.2,-93.89,-9.2,-94.8,0,-94.8C18.42,-94.8,35.99,-91.16,52.03,-84.58C94.96,-78.76,131.24,-52.01,150.26,-14.95C155.09,-5.54,158.81,4.54,161.24,15.11Z" fill="#863f38"><animate repeatCount="indefinite" attributeName="d" dur="4s" begin="0s" calcMode="spline" values="M161.24,15.11C124.16,63.56,65.73,94.8,0,94.8C-65.72,94.8,-124.15,63.56,-161.24,15.12C-151.07,-29.09,-118.39,-64.7,-75.91,-78.99C-68.24,-81.58,-60.25,-83.46,-52.02,-84.58C-44,-87.87,-35.6,-90.42,-26.9,-92.16C-18.2,-93.89,-9.2,-94.8,0,-94.8C18.42,-94.8,35.99,-91.16,52.03,-84.58C94.96,-78.76,131.24,-52.01,150.26,-14.95C155.09,-5.54,158.81,4.54,161.24,15.11Z; M161.24,15.11C124.16,63.56,65.73,94.8,0,94.8C-65.72,94.8,-124.15,63.56,-161.24,15.12C-151.07,-29.09,-118.39,-64.7,-75.91,-78.99C-68.24,-81.58,-60.25,-83.46,-52.02,-84.58C-44,-87.87,-35.6,-90.42,-26.9,-92.16C-18.2,-93.89,-9.2,-94.8,0,-94.8C18.42,-94.8,35.99,-91.16,52.03,-84.58C94.96,-78.76,131.24,-52.01,150.26,-14.95C155.09,-5.54,158.81,4.54,161.24,15.11Z; M161.23,18.294C124.15,66.744,65.73,94.8,0,94.8C-65.72,94.8,-124.14,67.098,-161.23,18.658C-151.06,-25.552,-118.39,-64.7,-75.91,-78.99C-68.24,-81.58,-60.25,-83.46,-52.02,-84.58C-44,-87.87,-35.6,-90.42,-26.9,-92.16C-18.2,-93.89,-9.2,-94.8,0,-94.8C18.42,-94.8,35.99,-91.16,52.03,-84.58C94.96,-78.76,131.24,-52.01,150.26,-14.95C155.09,-5.54,158.8,7.724,161.23,18.294Z; M161.23,18.294C124.15,66.744,65.73,94.8,0,94.8C-65.72,94.8,-124.14,67.098,-161.23,18.658C-151.06,-25.552,-118.39,-64.7,-75.91,-78.99C-68.24,-81.58,-60.25,-83.46,-52.02,-84.58C-44,-87.87,-35.6,-90.42,-26.9,-92.16C-18.2,-93.89,-9.2,-94.8,0,-94.8C18.42,-94.8,35.99,-91.16,52.03,-84.58C94.96,-78.76,131.24,-52.01,150.26,-14.95C155.09,-5.54,158.8,7.724,161.23,18.294Z; M161.24,15.11C124.16,63.56,65.73,94.8,0,94.8C-65.72,94.8,-124.15,63.56,-161.24,15.12C-151.07,-29.09,-118.39,-64.7,-75.91,-78.99C-68.24,-81.58,-60.25,-83.46,-52.02,-84.58C-44,-87.87,-35.6,-90.42,-26.9,-92.16C-18.2,-93.89,-9.2,-94.8,0,-94.8C18.42,-94.8,35.99,-91.16,52.03,-84.58C94.96,-78.76,131.24,-52.01,150.26,-14.95C155.09,-5.54,158.81,4.54,161.24,15.11Z; M161.24,15.11C124.16,63.56,65.73,94.8,0,94.8C-65.72,94.8,-124.15,63.56,-161.24,15.12C-151.07,-29.09,-118.39,-64.7,-75.91,-78.99C-68.24,-81.58,-60.25,-83.46,-52.02,-84.58C-44,-87.87,-35.6,-90.42,-26.9,-92.16C-18.2,-93.89,-9.2,-94.8,0,-94.8C18.42,-94.8,35.99,-91.16,52.03,-84.58C94.96,-78.76,131.24,-52.01,150.26,-14.95C155.09,-5.54,158.81,4.54,161.24,15.11Z" keyTimes="0; 0.375; 0.425; 0.725; 0.783333; 1" keySplines="0 0 1 1; 0.333 0 0.667 1; 0.333 0 0.667 1; 0.333 0 0.667 1; 0 0 1 1" fill="freeze" /></path></g><g id="i8" transform="matrix(1,0,0,1,437.174,380.057)"><path fill="#ffd9bb" d="M113.085,38.745C100.275,40.295,87.105,41.105,73.665,41.105C52.325,41.105,31.665,39.065,12.035,35.245C9.355,34.735,6.695,34.185,4.055,33.595C-43.195,23.105,-84.005,2.225,-113.085,-25.295C-105.415,-27.885,-97.425,-29.765,-89.195,-30.885C-81.175,-34.175,-72.775,-36.725,-64.075,-38.465C-55.375,-40.195,-46.375,-41.105,-37.175,-41.105C-18.865,-41.105,-1.395,-37.505,14.565,-31.005C14.665,-30.965,14.755,-30.925,14.855,-30.885C17.475,-30.535,20.065,-30.095,22.625,-29.595C62.145,-21.765,95.225,3.945,113.085,38.745Z" /></g><g id="i9" transform="matrix(1,0,0,1,0,0)"><g id="i9" transform="matrix(1,0,0,1,290.829,473.592)"><g id="i1"><path fill="#752926" d="M1.5,-22.57C1.5,-22.57,1.5,24.07,1.5,24.07C0.49,23.44,-0.51,22.8,-1.5,22.15C-1.5,22.15,-1.5,-22.57,-1.5,-22.57C-1.5,-23.4,-0.82,-24.07,0,-24.07C0.83,-24.07,1.5,-23.4,1.5,-22.57Z" /></g></g><g id="i1" transform="matrix(1,0,0,1,508.149,473.907)"><g id="i1"><path fill="#752926" d="M1.5,-22.885C1.5,-22.885,1.5,22.495,1.5,22.495C0.51,23.135,-0.49,23.765,-1.5,24.385C-1.5,24.385,-1.5,-22.885,-1.5,-22.885C-1.5,-23.715,-0.82,-24.385,0,-24.385C0.83,-24.385,1.5,-23.715,1.5,-22.885Z" /></g></g></g><g id="i1" transform="matrix(1,0,0,1,442.669,398.732)"><path fill="#863f38" d="M17.13,-48.27C17.1,-33.77,15.52,-8.38,6.54,16.57C2.63,27.46,-2.69,38.27,-9.91,48.06C-10.69,49.12,-11.901,49.68,-13.131,49.68C-13.951,49.68,-14.79,49.43,-15.5,48.9C-17.28,47.59,-17.66,45.09,-16.35,43.31C-9.9,34.56,-5.06,24.82,-1.44,14.92C7.66,-9.97,9.08,-35.9,9.07,-49.68C9.17,-49.64,9.26,-49.6,9.36,-49.56C11.98,-49.21,14.57,-48.77,17.13,-48.27Z" /></g></g></g></g></g><g id="i2"><g transform="translate(399.729,359.219)"><g transform="rotate(0)"><animateTransform repeatCount="indefinite" type="rotate" attributeName="transform" dur="4s" begin="0s" calcMode="spline" values="0; 0; 10; 10; -3; 1; 0; 0" keyTimes="0; 0.408333; 0.475; 0.7; 0.766667; 0.8; 0.825; 1" keySplines="0 0 1 1; 0.305 0 0 1; 0.333 0 0.667 1; 0.861 0 0.616 1; 0.775 0 0.67 1; 1 0 0.721 1; 0 0 1 1" fill="freeze" /><g transform="scale(1,1) translate(-399.729,-359.219)"><g id="i9" transform="matrix(1,0,0,1,399.729,296.22)"><path fill="#ffd9bb" d="M0,90.792C0,90.792,0,90.792,0,90.792C-18.723,90.792,-33.9,75.614,-33.9,56.891C-33.9,56.891,-33.9,-56.891,-33.9,-56.891C-33.9,-75.614,-18.723,-90.792,0,-90.792C0,-90.792,0,-90.792,0,-90.792C18.723,-90.792,33.9,-75.614,33.9,-56.891C33.9,-56.891,33.9,56.891,33.9,56.891C33.9,75.614,18.723,90.792,0,90.792Z" /></g><g id="i1" transform="matrix(1,0,0,1,399.729,268.431)"><path d="M33.898,-29.108C33.898,-29.108,33.898,63.005,33.898,63.005C8.974,61.412,-14.194,53.311,-33.898,40.356C-33.898,40.356,-33.898,-29.108,-33.898,-29.108C-33.898,-47.826,-18.718,-63.005,0,-63.005C9.365,-63.005,17.846,-59.214,23.976,-53.071C30.106,-46.941,33.898,-38.474,33.898,-29.108Z" fill="#f4c7a6"><animate repeatCount="indefinite" attributeName="d" dur="4s" begin="0s" calcMode="spline" values="M33.898,-29.108C33.898,-29.108,33.898,63.005,33.898,63.005C8.974,61.412,-14.194,53.311,-33.898,40.356C-33.898,40.356,-33.898,-29.108,-33.898,-29.108C-33.898,-47.826,-18.718,-63.005,0,-63.005C9.365,-63.005,17.846,-59.214,23.976,-53.071C30.106,-46.941,33.898,-38.474,33.898,-29.108Z; M33.898,-29.108C33.898,-29.108,33.898,63.005,33.898,63.005C8.974,61.412,-14.194,53.311,-33.898,40.356C-33.898,40.356,-33.898,-29.108,-33.898,-29.108C-33.898,-47.826,-18.718,-63.005,0,-63.005C9.365,-63.005,17.846,-59.214,23.976,-53.071C30.106,-46.941,33.898,-38.474,33.898,-29.108Z; M33.898,-29.108C33.898,-29.108,33.971,57.661,33.971,57.661C9.047,56.069,-14.121,47.967,-33.825,35.012C-33.825,35.012,-33.898,-29.108,-33.898,-29.108C-33.898,-47.826,-18.718,-63.005,0,-63.005C9.365,-63.005,17.846,-59.214,23.976,-53.071C30.106,-46.941,33.898,-38.474,33.898,-29.108Z; M33.898,-29.108C33.898,-29.108,33.971,57.661,33.971,57.661C9.047,56.068,-14.121,47.967,-33.825,35.012C-33.825,35.012,-33.898,-29.108,-33.898,-29.108C-33.898,-47.826,-18.718,-63.005,0,-63.005C9.365,-63.005,17.846,-59.214,23.976,-53.071C30.106,-46.941,33.898,-38.474,33.898,-29.108Z; M33.898,-29.108C33.898,-29.108,33.898,63.005,33.898,63.005C8.974,61.412,-14.194,53.311,-33.898,40.356C-33.898,40.356,-33.898,-29.108,-33.898,-29.108C-33.898,-47.826,-18.718,-63.005,0,-63.005C9.365,-63.005,17.846,-59.214,23.976,-53.071C30.106,-46.941,33.898,-38.474,33.898,-29.108Z; M33.898,-29.108C33.898,-29.108,33.898,63.005,33.898,63.005C8.974,61.412,-14.194,53.311,-33.898,40.356C-33.898,40.356,-33.898,-29.108,-33.898,-29.108C-33.898,-47.826,-18.718,-63.005,0,-63.005C9.365,-63.005,17.846,-59.214,23.976,-53.071C30.106,-46.941,33.898,-38.474,33.898,-29.108Z" keyTimes="0; 0.408333; 0.458333; 0.683333; 0.766667; 1" keySplines="0 0 1 1; 0.333 0 0.667 1; 0.333 0 0.667 1; 0.333 0 0.667 1; 0 0 1 1" fill="freeze" /></path></g></g></g></g></g><g id="i2"><g transform="translate(399.729,359.219)"><g transform="rotate(0)"><animateTransform repeatCount="indefinite" type="rotate" attributeName="transform" dur="4s" begin="0s" calcMode="spline" values="0; 0; 10; 10; -3; 1; 0; 0" keyTimes="0; 0.408333; 0.475; 0.7; 0.766667; 0.8; 0.825; 1" keySplines="0 0 1 1; 0.305 0 0 1; 0.333 0 0.667 1; 0.861 0 0.616 1; 0.775 0 0.67 1; 1 0 0.721 1; 0 0 1 1" fill="freeze" /><g transform="scale(1,1) translate(-399.729,-359.219)"><g transform="matrix(1,0,0,1,399.729,201.482)" id="i3"><g transform="matrix(1,0,0,1,84.176,25.225)" id="i10"><g id="i1"><path fill="#f6c9a7" d="M16.28,0C16.28,8.991,8.991,16.28,0,16.28C-8.991,16.28,-16.28,8.991,-16.28,0C-16.28,-8.991,-8.991,-16.28,0,-16.28C8.991,-16.28,16.28,-8.991,16.28,0Z" /></g></g></g></g></g></g></g><g id="i2"><g transform="translate(399.729,359.219)"><g transform="rotate(0)"><animateTransform repeatCount="indefinite" type="rotate" attributeName="transform" dur="4s" begin="0s" calcMode="spline" values="0; 0; 10; 10; -3; 1; 0; 0" keyTimes="0; 0.408333; 0.475; 0.7; 0.766667; 0.8; 0.825; 1" keySplines="0 0 1 1; 0.305 0 0 1; 0.333 0 0.667 1; 0.861 0 0.616 1; 0.775 0 0.67 1; 1 0 0.721 1; 0 0 1 1" fill="freeze" /><g transform="scale(1,1) translate(-399.729,-359.219)"><g transform="matrix(1,0,0,1,399.729,201.482)" id="i3"><g id="i1"><path fill="#ffd9bb" d="M40.814,97.341C40.814,97.341,40.814,97.341,40.814,97.341C16.426,114.866,-16.426,114.866,-40.814,97.341C-40.814,97.341,-40.814,97.341,-40.814,97.341C-67.866,77.901,-83.904,46.627,-83.904,13.315C-83.904,13.315,-83.904,-26.582,-83.904,-26.582C-83.904,-72.921,-46.339,-110.486,0,-110.486C0,-110.486,0,-110.486,0,-110.486C46.339,-110.486,83.904,-72.921,83.904,-26.582C83.904,-26.582,83.904,13.315,83.904,13.315C83.904,46.627,67.866,77.901,40.814,97.341Z" /></g></g></g></g></g></g><g id="i2"><g transform="translate(399.729,359.219)"><g transform="rotate(0)"><animateTransform repeatCount="indefinite" type="rotate" attributeName="transform" dur="4s" begin="0s" calcMode="spline" values="0; 0; 10; 10; -3; 1; 0; 0" keyTimes="0; 0.408333; 0.475; 0.7; 0.766667; 0.8; 0.825; 1" keySplines="0 0 1 1; 0.305 0 0 1; 0.333 0 0.667 1; 0.861 0 0.616 1; 0.775 0 0.67 1; 1 0 0.721 1; 0 0 1 1" fill="freeze" /><g transform="scale(1,1) translate(-399.729,-359.219)"><g transform="matrix(1,0,0,1,399.729,201.482)" id="i3"><g id="i11"><g transform="translate(0,68.422)"><g transform="scale(0.75,0.75)"><animateTransform repeatCount="indefinite" type="scale" attributeName="transform" dur="4s" begin="0s" calcMode="spline" values="0.75 0.75; 0.75 0.75; 1 1; 1 1; 0.75 0.75; 0.75 0.75" keyTimes="0; 0.383333; 0.441667; 0.666667; 0.725; 1" keySplines="0 0 1 1; 0.333 0 0.667 1; 0.333 0 0.667 1; 0.333 0 0.667 1; 0 0 1 1" fill="freeze" /><g transform="translate(0,0)"><g id="i1"><path fill="#ffffff" d="M0,14.906C0,14.906,0,14.906,0,14.906C-16.465,14.906,-29.813,1.559,-29.813,-14.906C-29.813,-14.906,29.813,-14.906,29.813,-14.906C29.813,1.559,16.465,14.906,0,14.906Z" /></g></g></g></g></g></g></g></g></g></g><g id="i2"><g transform="translate(399.729,359.219)"><g transform="rotate(0)"><animateTransform repeatCount="indefinite" type="rotate" attributeName="transform" dur="4s" begin="0s" calcMode="spline" values="0; 0; 10; 10; -3; 1; 0; 0" keyTimes="0; 0.408333; 0.475; 0.7; 0.766667; 0.8; 0.825; 1" keySplines="0 0 1 1; 0.305 0 0 1; 0.333 0 0.667 1; 0.861 0 0.616 1; 0.775 0 0.67 1; 1 0 0.721 1; 0 0 1 1" fill="freeze" /><g transform="scale(1,1) translate(-399.729,-359.219)"><g transform="matrix(1,0,0,1,399.729,201.482)" id="i3"><g transform="matrix(1,0,0,1,0,25.225)" id="i12"><g id="i1"><path fill="#f4c7a6" d="M0,17.67C0,17.67,0,17.67,0,17.67C-5.311,17.67,-9.466,13.094,-8.954,7.808C-8.954,7.808,-7.113,-11.212,-7.113,-11.212C-6.758,-14.875,-3.68,-17.67,0,-17.67C0,-17.67,0,-17.67,0,-17.67C3.68,-17.67,6.758,-14.875,7.113,-11.212C7.113,-11.212,8.954,7.808,8.954,7.808C9.466,13.094,5.311,17.67,0,17.67Z" /></g></g></g></g></g></g></g><g id="i2"><g transform="translate(399.729,359.219)"><g transform="rotate(0)"><animateTransform repeatCount="indefinite" type="rotate" attributeName="transform" dur="4s" begin="0s" calcMode="spline" values="0; 0; 10; 10; -3; 1; 0; 0" keyTimes="0; 0.408333; 0.475; 0.7; 0.766667; 0.8; 0.825; 1" keySplines="0 0 1 1; 0.305 0 0 1; 0.333 0 0.667 1; 0.861 0 0.616 1; 0.775 0 0.67 1; 1 0 0.721 1; 0 0 1 1" fill="freeze" /><g transform="scale(1,1) translate(-399.729,-359.219)"><g transform="matrix(1,0,0,1,399.729,201.482)" id="i3"><g id="i13"><g transform="translate(-0.746,13.288)"><g transform="scale(1,1)"><animateTransform repeatCount="indefinite" type="scale" attributeName="transform" dur="4s" begin="0s" calcMode="spline" values="1 1; 1 1; 1 0.1; 1 1; 1 1" keyTimes="0; 0.1; 0.129167; 0.158333; 1" keySplines="0 0 1 1; 0.333 0 0.667 1; 0.333 0 0.667 1; 0 0 1 1" fill="freeze" /><g transform="translate(-398.984,-214.771)"><g id="i9" transform="matrix(1,0,0,1,364.066,214.771)"><path d="M0,9.735C0,9.735,0,9.735,0,9.735C-5.377,9.735,-9.735,5.377,-9.735,0C-9.735,0,-9.735,0,-9.735,0C-9.735,-5.377,-5.377,-9.735,0,-9.735C0,-9.735,0,-9.735,0,-9.735C5.377,-9.735,9.735,-5.377,9.735,0C9.735,0,9.735,0,9.735,0C9.735,5.377,5.377,9.735,0,9.735Z" fill="#563c00"><animate repeatCount="indefinite" attributeName="d" dur="4s" begin="0s" calcMode="spline" values="M0,9.735C0,9.735,0,9.735,0,9.735C-5.377,9.735,-9.735,5.377,-9.735,0C-9.735,0,-9.735,0,-9.735,0C-9.735,-5.377,-5.377,-9.735,0,-9.735C0,-9.735,0,-9.735,0,-9.735C5.377,-9.735,9.735,-5.377,9.735,0C9.735,0,9.735,0,9.735,0C9.735,5.377,5.377,9.735,0,9.735Z; M0,9.735C0,9.735,0,9.735,0,9.735C-5.377,9.735,-9.735,5.377,-9.735,0C-9.735,0,-9.735,0,-9.735,0C-9.735,-5.377,-5.377,-9.735,0,-9.735C0,-9.735,0,-9.735,0,-9.735C5.377,-9.735,9.735,-5.377,9.735,0C9.735,0,9.735,0,9.735,0C9.735,5.377,5.377,9.735,0,9.735Z; M0,1.735C0,1.735,0,1.735,0,1.735C-5.377,1.735,-9.735,5.377,-9.735,0C-9.735,0,-9.735,0,-9.735,0C-9.735,-5.377,-5.377,-9.735,0,-9.735C0,-9.735,0,-9.735,0,-9.735C5.377,-9.735,9.735,-5.377,9.735,0C9.735,0,9.735,0,9.735,0C9.735,5.377,5.377,1.735,0,1.735Z; M0,1.735C0,1.735,0,1.735,0,1.735C-5.377,1.735,-9.735,5.377,-9.735,0C-9.735,0,-9.735,0,-9.735,0C-9.735,-5.377,-5.377,-9.735,0,-9.735C0,-9.735,0,-9.735,0,-9.735C5.377,-9.735,9.735,-5.377,9.735,0C9.735,0,9.735,0,9.735,0C9.735,5.377,5.377,1.735,0,1.735Z; M0,9.735C0,9.735,0,9.735,0,9.735C-5.377,9.735,-9.735,5.377,-9.735,0C-9.735,0,-9.735,0,-9.735,0C-9.735,-5.377,-5.377,-9.735,0,-9.735C0,-9.735,0,-9.735,0,-9.735C5.377,-9.735,9.735,-5.377,9.735,0C9.735,0,9.735,0,9.735,0C9.735,5.377,5.377,9.735,0,9.735Z; M0,9.735C0,9.735,0,9.735,0,9.735C-5.377,9.735,-9.735,5.377,-9.735,0C-9.735,0,-9.735,0,-9.735,0C-9.735,-5.377,-5.377,-9.735,0,-9.735C0,-9.735,0,-9.735,0,-9.735C5.377,-9.735,9.735,-5.377,9.735,0C9.735,0,9.735,0,9.735,0C9.735,5.377,5.377,9.735,0,9.735Z" keyTimes="0; 0.383333; 0.425; 0.666667; 0.708333; 1" keySplines="0 0 1 1; 0.333 0 0.667 1; 0.333 0 0.667 1; 0.333 0 0.667 1; 0 0 1 1" fill="freeze" /></path></g><g id="i1" transform="matrix(1,0,0,1,433.901,214.771)"><path d="M0,9.735C0,9.735,0,9.735,0,9.735C-5.377,9.735,-9.735,5.377,-9.735,0C-9.735,0,-9.735,0,-9.735,0C-9.735,-5.377,-5.377,-9.735,0,-9.735C0,-9.735,0,-9.735,0,-9.735C5.377,-9.735,9.735,-5.377,9.735,0C9.735,0,9.735,0,9.735,0C9.735,5.377,5.377,9.735,0,9.735Z" fill="#563c00"><animate repeatCount="indefinite" attributeName="d" dur="4s" begin="0s" calcMode="spline" values="M0,9.735C0,9.735,0,9.735,0,9.735C-5.377,9.735,-9.735,5.377,-9.735,0C-9.735,0,-9.735,0,-9.735,0C-9.735,-5.377,-5.377,-9.735,0,-9.735C0,-9.735,0,-9.735,0,-9.735C5.377,-9.735,9.735,-5.377,9.735,0C9.735,0,9.735,0,9.735,0C9.735,5.377,5.377,9.735,0,9.735Z; M0,9.735C0,9.735,0,9.735,0,9.735C-5.377,9.735,-9.735,5.377,-9.735,0C-9.735,0,-9.735,0,-9.735,0C-9.735,-5.377,-5.377,-9.735,0,-9.735C0,-9.735,0,-9.735,0,-9.735C5.377,-9.735,9.735,-5.377,9.735,0C9.735,0,9.735,0,9.735,0C9.735,5.377,5.377,9.735,0,9.735Z; M0,1.735C0,1.735,0,1.735,0,1.735C-5.377,1.735,-9.735,5.377,-9.735,0C-9.735,0,-9.735,0,-9.735,0C-9.735,-5.377,-5.377,-9.735,0,-9.735C0,-9.735,0,-9.735,0,-9.735C5.377,-9.735,9.735,-5.377,9.735,0C9.735,0,9.735,0,9.735,0C9.735,5.377,5.377,1.735,0,1.735Z; M0,1.735C0,1.735,0,1.735,0,1.735C-5.377,1.735,-9.735,5.377,-9.735,0C-9.735,0,-9.735,0,-9.735,0C-9.735,-5.377,-5.377,-9.735,0,-9.735C0,-9.735,0,-9.735,0,-9.735C5.377,-9.735,9.735,-5.377,9.735,0C9.735,0,9.735,0,9.735,0C9.735,5.377,5.377,1.735,0,1.735Z; M0,9.735C0,9.735,0,9.735,0,9.735C-5.377,9.735,-9.735,5.377,-9.735,0C-9.735,0,-9.735,0,-9.735,0C-9.735,-5.377,-5.377,-9.735,0,-9.735C0,-9.735,0,-9.735,0,-9.735C5.377,-9.735,9.735,-5.377,9.735,0C9.735,0,9.735,0,9.735,0C9.735,5.377,5.377,9.735,0,9.735Z; M0,9.735C0,9.735,0,9.735,0,9.735C-5.377,9.735,-9.735,5.377,-9.735,0C-9.735,0,-9.735,0,-9.735,0C-9.735,-5.377,-5.377,-9.735,0,-9.735C0,-9.735,0,-9.735,0,-9.735C5.377,-9.735,9.735,-5.377,9.735,0C9.735,0,9.735,0,9.735,0C9.735,5.377,5.377,9.735,0,9.735Z" keyTimes="0; 0.383333; 0.425; 0.666667; 0.708333; 1" keySplines="0 0 1 1; 0.333 0 0.667 1; 0.333 0 0.667 1; 0.333 0 0.667 1; 0 0 1 1" fill="freeze" /></path></g></g></g></g></g></g></g></g></g></g><g id="i2"><g transform="translate(399.729,359.219)"><g transform="rotate(0)"><animateTransform repeatCount="indefinite" type="rotate" attributeName="transform" dur="4s" begin="0s" calcMode="spline" values="0; 0; 10; 10; -3; 1; 0; 0" keyTimes="0; 0.408333; 0.475; 0.7; 0.766667; 0.8; 0.825; 1" keySplines="0 0 1 1; 0.305 0 0 1; 0.333 0 0.667 1; 0.861 0 0.616 1; 0.775 0 0.67 1; 1 0 0.721 1; 0 0 1 1" fill="freeze" /><g transform="scale(1,1) translate(-399.729,-359.219)"><g transform="matrix(1,0,0,1,399.729,201.482)" id="i3"><g transform="matrix(1,0,0,1,-399.729,-201.482)" id="i14"><g id="i9" transform="matrix(1,0,0,1,363.406,188.02)"><path fill="#422c01" d="M8.357,4.624C8.357,4.624,-8.357,4.624,-8.357,4.624C-10.911,4.624,-12.98,2.554,-12.98,0C-12.98,0,-12.98,0,-12.98,0C-12.98,-2.554,-10.911,-4.624,-8.357,-4.624C-8.357,-4.624,8.357,-4.624,8.357,-4.624C10.911,-4.624,12.98,-2.554,12.98,0C12.98,0,12.98,0,12.98,0C12.98,2.554,10.911,4.624,8.357,4.624Z" /></g><g id="i1" transform="matrix(1,0,0,1,433.901,188.02)"><path fill="#422c01" d="M8.357,4.624C8.357,4.624,-8.357,4.624,-8.357,4.624C-10.911,4.624,-12.98,2.554,-12.98,0C-12.98,0,-12.98,0,-12.98,0C-12.98,-2.554,-10.911,-4.624,-8.357,-4.624C-8.357,-4.624,8.357,-4.624,8.357,-4.624C10.911,-4.624,12.98,-2.554,12.98,0C12.98,0,12.98,0,12.98,0C12.98,2.554,10.911,4.624,8.357,4.624Z" /></g></g></g></g></g></g></g><g id="i2"><g transform="translate(399.729,359.219)"><g transform="rotate(0)"><animateTransform repeatCount="indefinite" type="rotate" attributeName="transform" dur="4s" begin="0s" calcMode="spline" values="0; 0; 10; 10; -3; 1; 0; 0" keyTimes="0; 0.408333; 0.475; 0.7; 0.766667; 0.8; 0.825; 1" keySplines="0 0 1 1; 0.305 0 0 1; 0.333 0 0.667 1; 0.861 0 0.616 1; 0.775 0 0.67 1; 1 0 0.721 1; 0 0 1 1" fill="freeze" /><g transform="scale(1,1) translate(-399.729,-359.219)"><g transform="matrix(1,0,0,1,399.729,201.482)" id="i3"><g id="i4"><g transform="translate(-1.63,-118.359)"><g transform="rotate(0)"><animateTransform repeatCount="indefinite" type="rotate" attributeName="transform" dur="4s" begin="0s" calcMode="spline" values="0; 0; -2; 1; -1; 0; 0" keyTimes="0; 0.758333; 0.787125; 0.8303; 0.873483; 0.916666; 1" keySplines="0 0 1 1; 0.333 0 0.667 1; 0.333 0 0.667 1; 0.333 0 0.667 1; 0.333 0 0.667 1; 0 0 1 1" fill="freeze" /><g transform="scale(1,1) translate(-398.628,-83.765)"><g id="i9" transform="matrix(1,0,0,1,424.158,150.08)"><path fill="#563c00" d="M-74.237,-33.974C-74.237,-33.974,-66.73,27.268,-5.883,39.121C-5.883,39.121,-20.897,1.586,-20.897,1.586C-20.897,1.586,-15.761,47.024,44.691,44.653C44.691,44.653,66.817,54.925,58.915,78.632C58.915,78.632,80.645,60.457,72.348,29.639C64.051,-1.179,83.411,-3.155,52.593,-48.593C25.411,-88.669,-63.569,-93.24,-74.237,-33.974Z" /></g><g id="i1" transform="matrix(1,0,0,1,308.225,254.745)"><path fill="#563c00" d="M61.686,-151.678C61.686,-151.678,32.448,-175.384,10.322,-148.517C-11.804,-121.649,-6.272,-79.768,-26.818,-53.691C-47.364,-27.614,-44.203,-4.698,-18.916,19.799C6.371,44.296,-90.035,67.212,-59.217,128.059C-28.399,188.906,50.403,156.627,55.934,108.424C61.466,60.221,57.604,48.459,57.604,48.459C57.604,48.459,23.756,24.541,18.224,-15.76C12.693,-56.061,22.175,-75.817,39.56,-90.041C56.945,-104.265,72.749,-116.908,61.686,-151.678Z" /></g></g></g></g></g></g></g></g></g></g></svg>